<mxfile host="app.diagrams.net" modified="2023-11-02T07:57:48.898Z" agent="Mozilla/5.0 (Macintosh; Intel Mac OS X 10_15_7) AppleWebKit/537.36 (KHTML, like Gecko) Chrome/117.0.0.0 Safari/537.36" version="22.0.8" etag="s3FrgGll3ZAPT6T0w3sP" type="github">
  <diagram name="Page-1" id="vHsQDg1Y7kbEgiqm7og9">
    <mxGraphModel>
      <root>
        <mxCell id="0" />
        <mxCell id="1" parent="0" />
      </root>
    </mxGraphModel>
  </diagram>
</mxfile>
